<svg width="32" height="32" viewBox="0 0 32 32" fill="none" xmlns="http://www.w3.org/2000/svg">
<path d="M31 16C31 7.71573 24.2843 1 16 1C7.71573 1 1 7.71573 1 16C1 24.2843 7.71573 31 16 31C18.2563 31 20.3962 30.5018 22.3158 29.6095M31 16.3947C31 18.3568 29.4094 19.9474 27.4474 19.9474C25.4853 19.9474 23.8947 18.3568 23.8947 16.3947V8.10526M23.8947 16C23.8947 20.3601 20.3601 23.8947 16 23.8947C11.6399 23.8947 8.10526 20.3601 8.10526 16C8.10526 11.6399 11.6399 8.10526 16 8.10526C20.3601 8.10526 23.8947 11.6399 23.8947 16Z" stroke="white" stroke-width="2" stroke-linecap="round" stroke-linejoin="round"/>
</svg>
